<svg width="23" height="37" fill="none" xmlns="http://www.w3.org/2000/svg"><path d="M11.016 12.225c3.346 0 6.06-2.737 6.06-6.113 0-3.375-2.714-6.112-6.06-6.112C7.67 0 4.957 2.737 4.957 6.112c0 3.376 2.713 6.113 6.06 6.113Z" fill="url(#a)"/><path d="M11 13.377c-6.063 0-11 4.086-11 9.12a.6.6 0 0 0 .605.608h20.79a.6.6 0 0 0 .605-.608c0-5.034-4.937-9.12-11-9.12Z" fill="url(#b)"/><g filter="url(#c)"><path d="M11.184 13.377a.97.97 0 1 1 0 1.938.97.97 0 0 1 0-1.938Z" fill="#FFE8B3"/></g><g filter="url(#d)"><path d="m11.236 14.897-1.892 8.198 1.893 3.658 1.723-3.658-1.724-8.198Z" fill="#FFE8B3"/></g><defs><linearGradient id="a" x1="5.071" y1=".157" x2="9.908" y2="12.658" gradientUnits="userSpaceOnUse"><stop stop-color="#FFC700"/><stop offset="1" stop-color="#FB7400"/></linearGradient><linearGradient id="b" x1=".206" y1="13.501" x2="2.092" y2="24.62" gradientUnits="userSpaceOnUse"><stop stop-color="#FFC700"/><stop offset="1" stop-color="#FB7400"/></linearGradient><filter id="c" x="8.215" y="11.377" width="13.941" height="13.938" filterUnits="userSpaceOnUse" color-interpolation-filters="sRGB"><feFlood flood-opacity="0" result="BackgroundImageFix"/><feColorMatrix in="SourceAlpha" values="0 0 0 0 0 0 0 0 0 0 0 0 0 0 0 0 0 0 127 0" result="hardAlpha"/><feOffset dx="4" dy="4"/><feGaussianBlur stdDeviation="3"/><feComposite in2="hardAlpha" operator="out"/><feColorMatrix values="0 0 0 0 0 0 0 0 0 0 0 0 0 0 0 0 0 0 0.1 0"/><feBlend in2="BackgroundImageFix" result="effect1_dropShadow_1258_506008"/><feBlend in="SourceGraphic" in2="effect1_dropShadow_1258_506008" result="shape"/></filter><filter id="d" x="7.344" y="12.897" width="15.617" height="23.857" filterUnits="userSpaceOnUse" color-interpolation-filters="sRGB"><feFlood flood-opacity="0" result="BackgroundImageFix"/><feColorMatrix in="SourceAlpha" values="0 0 0 0 0 0 0 0 0 0 0 0 0 0 0 0 0 0 127 0" result="hardAlpha"/><feOffset dx="4" dy="4"/><feGaussianBlur stdDeviation="3"/><feComposite in2="hardAlpha" operator="out"/><feColorMatrix values="0 0 0 0 0 0 0 0 0 0 0 0 0 0 0 0 0 0 0.1 0"/><feBlend in2="BackgroundImageFix" result="effect1_dropShadow_1258_506008"/><feBlend in="SourceGraphic" in2="effect1_dropShadow_1258_506008" result="shape"/></filter></defs></svg>
