<svg width="24" height="28" viewBox="0 0 28 28" fill="none" xmlns="http://www.w3.org/2000/svg"><path d="M2.441 25.491V7.078c0-2.317.168-3.482 2.462-3.482h9.36c2.294 0 2.245 1.165 2.245 3.482v18.413" fill="url(#a)"/><path d="M2.441 25.491V7.078c0-2.317.168-3.482 2.462-3.482h9.36c2.294 0 2.245 1.165 2.245 3.482v18.413" fill="#710000" fill-opacity=".25"/><g filter="url(#b)"><path d="M12.267 10.502H6.56a.871.871 0 0 1-.865-.865c0-.473.392-.865.865-.865h5.707c.473 0 .865.392.865.865a.871.871 0 0 1-.865.865Z" fill="#FFE8B3"/></g><g filter="url(#c)"><path d="M12.267 14.826H6.56a.871.871 0 0 1-.865-.865c0-.473.392-.865.865-.865h5.707c.473 0 .865.392.865.865a.871.871 0 0 1-.865.865Z" fill="#FFE8B3"/></g><g filter="url(#d)"><path d="M9.412 25.355c-.473 0-.865-.327-.865-.721v-3.61c0-.394.392-.721.865-.721.472 0 .864.327.864.721v3.61c0 .394-.392.721-.864.721Z" fill="#FFE8B3"/></g><path d="M24.437 24.46h-1.99a.407.407 0 0 1-.408-.408v-2.701c0-.173.111-.324.266-.4.864-.425 1.467-1.356 1.467-2.437v-2.265c0-1.483-1.13-2.695-2.514-2.695s-2.514 1.212-2.514 2.695v2.265c0 1.071.594 1.992 1.44 2.423.152.077.26.227.26.397v2.718a.407.407 0 0 1-.407.407H1.198c-.433 0-.792.385-.792.85 0 .464.36.849.792.849h19.996c.021 0 .032.011.053.011.021 0 .032-.011.053-.011h3.137c.433 0 .792-.385.792-.85 0-.464-.359-.849-.792-.849Z" fill="#FFE8B3"/><path fill-rule="evenodd" clip-rule="evenodd" d="M23.745 7.043h-8.274l-3.662 3.663v15.26c0 1.123.91 2.034 2.034 2.034h9.902c1.124 0 2.035-.91 2.035-2.034V9.078c0-1.124-.91-2.035-2.035-2.035Z" fill="url(#e)"/><g filter="url(#f)"><path d="m12.56 10.765 2.968-2.967a.203.203 0 0 1 .347.143v2.968a.203.203 0 0 1-.204.204h-2.967a.204.204 0 0 1-.144-.348Z" fill="#FFE8B3"/></g><g filter="url(#g)"><rect x="13.445" y="16.494" width="7.808" height="1.233" rx=".407" fill="#FFE8B3"/></g><g filter="url(#h)"><rect x="13.445" y="18.96" width="5.753" height="1.233" rx=".407" fill="#FFE8B3"/></g><g filter="url(#i)"><rect x="13.445" y="21.426" width="4.52" height="1.233" rx=".407" fill="#FFE8B3"/></g><defs><filter id="b" x="5.288" y="8.366" width="9.879" height="4.171" filterUnits="userSpaceOnUse" color-interpolation-filters="sRGB"><feFlood flood-opacity="0" result="BackgroundImageFix"/><feColorMatrix in="SourceAlpha" values="0 0 0 0 0 0 0 0 0 0 0 0 0 0 0 0 0 0 127 0" result="hardAlpha"/><feOffset dx=".814" dy=".814"/><feGaussianBlur stdDeviation=".61"/><feComposite in2="hardAlpha" operator="out"/><feColorMatrix values="0 0 0 0 0 0 0 0 0 0 0 0 0 0 0 0 0 0 0.1 0"/><feBlend in2="BackgroundImageFix" result="effect1_dropShadow_1258_505984"/><feBlend in="SourceGraphic" in2="effect1_dropShadow_1258_505984" result="shape"/></filter><filter id="c" x="5.288" y="12.689" width="9.879" height="4.171" filterUnits="userSpaceOnUse" color-interpolation-filters="sRGB"><feFlood flood-opacity="0" result="BackgroundImageFix"/><feColorMatrix in="SourceAlpha" values="0 0 0 0 0 0 0 0 0 0 0 0 0 0 0 0 0 0 127 0" result="hardAlpha"/><feOffset dx=".814" dy=".814"/><feGaussianBlur stdDeviation=".61"/><feComposite in2="hardAlpha" operator="out"/><feColorMatrix values="0 0 0 0 0 0 0 0 0 0 0 0 0 0 0 0 0 0 0.1 0"/><feBlend in2="BackgroundImageFix" result="effect1_dropShadow_1258_505984"/><feBlend in="SourceGraphic" in2="effect1_dropShadow_1258_505984" result="shape"/></filter><filter id="d" x="8.14" y="19.896" width="4.172" height="7.494" filterUnits="userSpaceOnUse" color-interpolation-filters="sRGB"><feFlood flood-opacity="0" result="BackgroundImageFix"/><feColorMatrix in="SourceAlpha" values="0 0 0 0 0 0 0 0 0 0 0 0 0 0 0 0 0 0 127 0" result="hardAlpha"/><feOffset dx=".814" dy=".814"/><feGaussianBlur stdDeviation=".61"/><feComposite in2="hardAlpha" operator="out"/><feColorMatrix values="0 0 0 0 0 0 0 0 0 0 0 0 0 0 0 0 0 0 0.1 0"/><feBlend in2="BackgroundImageFix" result="effect1_dropShadow_1258_505984"/><feBlend in="SourceGraphic" in2="effect1_dropShadow_1258_505984" result="shape"/></filter><filter id="f" x="12.093" y="7.331" width="5.817" height="5.817" filterUnits="userSpaceOnUse" color-interpolation-filters="sRGB"><feFlood flood-opacity="0" result="BackgroundImageFix"/><feColorMatrix in="SourceAlpha" values="0 0 0 0 0 0 0 0 0 0 0 0 0 0 0 0 0 0 127 0" result="hardAlpha"/><feOffset dx=".814" dy=".814"/><feGaussianBlur stdDeviation=".61"/><feComposite in2="hardAlpha" operator="out"/><feColorMatrix values="0 0 0 0 0 0 0 0 0 0 0 0 0 0 0 0 0 0 0.1 0"/><feBlend in2="BackgroundImageFix" result="effect1_dropShadow_1258_505984"/><feBlend in="SourceGraphic" in2="effect1_dropShadow_1258_505984" result="shape"/></filter><filter id="g" x="13.038" y="16.087" width="10.25" height="3.674" filterUnits="userSpaceOnUse" color-interpolation-filters="sRGB"><feFlood flood-opacity="0" result="BackgroundImageFix"/><feColorMatrix in="SourceAlpha" values="0 0 0 0 0 0 0 0 0 0 0 0 0 0 0 0 0 0 127 0" result="hardAlpha"/><feOffset dx=".814" dy=".814"/><feGaussianBlur stdDeviation=".61"/><feComposite in2="hardAlpha" operator="out"/><feColorMatrix values="0 0 0 0 0 0 0 0 0 0 0 0 0 0 0 0 0 0 0.1 0"/><feBlend in2="BackgroundImageFix" result="effect1_dropShadow_1258_505984"/><feBlend in="SourceGraphic" in2="effect1_dropShadow_1258_505984" result="shape"/></filter><filter id="h" x="13.038" y="18.553" width="8.196" height="3.674" filterUnits="userSpaceOnUse" color-interpolation-filters="sRGB"><feFlood flood-opacity="0" result="BackgroundImageFix"/><feColorMatrix in="SourceAlpha" values="0 0 0 0 0 0 0 0 0 0 0 0 0 0 0 0 0 0 127 0" result="hardAlpha"/><feOffset dx=".814" dy=".814"/><feGaussianBlur stdDeviation=".61"/><feComposite in2="hardAlpha" operator="out"/><feColorMatrix values="0 0 0 0 0 0 0 0 0 0 0 0 0 0 0 0 0 0 0.1 0"/><feBlend in2="BackgroundImageFix" result="effect1_dropShadow_1258_505984"/><feBlend in="SourceGraphic" in2="effect1_dropShadow_1258_505984" result="shape"/></filter><filter id="i" x="13.038" y="21.019" width="6.961" height="3.674" filterUnits="userSpaceOnUse" color-interpolation-filters="sRGB"><feFlood flood-opacity="0" result="BackgroundImageFix"/><feColorMatrix in="SourceAlpha" values="0 0 0 0 0 0 0 0 0 0 0 0 0 0 0 0 0 0 127 0" result="hardAlpha"/><feOffset dx=".814" dy=".814"/><feGaussianBlur stdDeviation=".61"/><feComposite in2="hardAlpha" operator="out"/><feColorMatrix values="0 0 0 0 0 0 0 0 0 0 0 0 0 0 0 0 0 0 0.1 0"/><feBlend in2="BackgroundImageFix" result="effect1_dropShadow_1258_505984"/><feBlend in="SourceGraphic" in2="effect1_dropShadow_1258_505984" result="shape"/></filter><linearGradient id="a" x1="2.573" y1="3.877" x2="13.904" y2="22.855" gradientUnits="userSpaceOnUse"><stop stop-color="#FFC700"/><stop offset="1" stop-color="#FB7400"/></linearGradient><linearGradient id="e" x1="11.94" y1="7.312" x2="22.591" y2="25.824" gradientUnits="userSpaceOnUse"><stop stop-color="#FFC700"/><stop offset="1" stop-color="#FB7400"/></linearGradient></defs></svg>
