<svg width="22" height="24" viewBox="0 0 22 24" fill="none" xmlns="http://www.w3.org/2000/svg">
<path d="M4.99821 23.7374C4.66041 23.7374 4.36988 23.6156 4.12663 23.3718C3.88336 23.1281 3.76172 22.8375 3.76172 22.5V22.0759C3.76172 21.3367 3.16247 20.7374 2.42327 20.7374C1.95249 20.7374 1.55787 20.5782 1.23939 20.2598C0.920944 19.9413 0.761719 19.5467 0.761719 19.0759V4.924C0.761719 4.45323 0.920944 4.0586 1.23939 3.74013C1.55787 3.42168 1.95249 3.26245 2.42327 3.26245C3.16247 3.26245 3.76172 2.66321 3.76172 1.924V1.49995C3.76172 1.16245 3.88369 0.871826 4.12764 0.628076C4.37157 0.384326 4.66243 0.262451 5.00023 0.262451C5.33803 0.262451 5.62856 0.384326 5.87181 0.628076C6.11508 0.871826 6.23672 1.16245 6.23672 1.49995V1.924C6.23672 2.66321 6.83596 3.26245 7.57517 3.26245C8.04594 3.26245 8.44057 3.42168 8.75904 3.74013C9.07749 4.0586 9.23672 4.45323 9.23672 4.924V19.0759C9.23672 19.5467 9.07749 19.9413 8.75904 20.2598C8.44057 20.5782 8.04594 20.7374 7.57517 20.7374C6.83596 20.7374 6.23672 21.3367 6.23672 22.0759V22.5C6.23672 22.8375 6.11474 23.1281 5.87079 23.3718C5.62687 23.6156 5.33601 23.7374 4.99821 23.7374ZM16.9982 23.7374C16.6604 23.7374 16.3699 23.6156 16.1266 23.3718C15.8834 23.1281 15.7617 22.8375 15.7617 22.5V17.5759C15.7617 16.8367 15.1625 16.2375 14.4233 16.2375C13.9525 16.2375 13.5579 16.0782 13.2394 15.7598C12.9209 15.4413 12.7617 15.0467 12.7617 14.5759V7.924C12.7617 7.45323 12.9209 7.0586 13.2394 6.74013C13.5579 6.42168 13.9525 6.26245 14.4233 6.26245C15.1625 6.26245 15.7617 5.66321 15.7617 4.924V1.49995C15.7617 1.16245 15.8837 0.871826 16.1276 0.628076C16.3716 0.384326 16.6624 0.262451 17.0002 0.262451C17.338 0.262451 17.6286 0.384326 17.8718 0.628076C18.1151 0.871826 18.2367 1.16245 18.2367 1.49995V4.924C18.2367 5.66321 18.836 6.26245 19.5752 6.26245C20.0459 6.26245 20.4406 6.42168 20.759 6.74013C21.0775 7.0586 21.2367 7.45323 21.2367 7.924V14.5759C21.2367 15.0467 21.0775 15.4413 20.759 15.7598C20.4406 16.0782 20.0459 16.2375 19.5752 16.2375C18.836 16.2375 18.2367 16.8367 18.2367 17.5759V22.5C18.2367 22.8375 18.1147 23.1281 17.8708 23.3718C17.6269 23.6156 17.336 23.7374 16.9982 23.7374Z" fill="url(#paint0_linear_1258_505979)"></path>
<path d="M4.99821 23.7374C4.66041 23.7374 4.36988 23.6156 4.12663 23.3718C3.88336 23.1281 3.76172 22.8375 3.76172 22.5V22.0759C3.76172 21.3367 3.16247 20.7374 2.42327 20.7374C1.95249 20.7374 1.55787 20.5782 1.23939 20.2598C0.920944 19.9413 0.761719 19.5467 0.761719 19.0759V4.924C0.761719 4.45323 0.920944 4.0586 1.23939 3.74013C1.55787 3.42168 1.95249 3.26245 2.42327 3.26245C3.16247 3.26245 3.76172 2.66321 3.76172 1.924V1.49995C3.76172 1.16245 3.88369 0.871826 4.12764 0.628076C4.37157 0.384326 4.66243 0.262451 5.00023 0.262451C5.33803 0.262451 5.62856 0.384326 5.87181 0.628076C6.11508 0.871826 6.23672 1.16245 6.23672 1.49995V1.924C6.23672 2.66321 6.83596 3.26245 7.57517 3.26245C8.04594 3.26245 8.44057 3.42168 8.75904 3.74013C9.07749 4.0586 9.23672 4.45323 9.23672 4.924V19.0759C9.23672 19.5467 9.07749 19.9413 8.75904 20.2598C8.44057 20.5782 8.04594 20.7374 7.57517 20.7374C6.83596 20.7374 6.23672 21.3367 6.23672 22.0759V22.5C6.23672 22.8375 6.11474 23.1281 5.87079 23.3718C5.62687 23.6156 5.33601 23.7374 4.99821 23.7374ZM16.9982 23.7374C16.6604 23.7374 16.3699 23.6156 16.1266 23.3718C15.8834 23.1281 15.7617 22.8375 15.7617 22.5V17.5759C15.7617 16.8367 15.1625 16.2375 14.4233 16.2375C13.9525 16.2375 13.5579 16.0782 13.2394 15.7598C12.9209 15.4413 12.7617 15.0467 12.7617 14.5759V7.924C12.7617 7.45323 12.9209 7.0586 13.2394 6.74013C13.5579 6.42168 13.9525 6.26245 14.4233 6.26245C15.1625 6.26245 15.7617 5.66321 15.7617 4.924V1.49995C15.7617 1.16245 15.8837 0.871826 16.1276 0.628076C16.3716 0.384326 16.6624 0.262451 17.0002 0.262451C17.338 0.262451 17.6286 0.384326 17.8718 0.628076C18.1151 0.871826 18.2367 1.16245 18.2367 1.49995V4.924C18.2367 5.66321 18.836 6.26245 19.5752 6.26245C20.0459 6.26245 20.4406 6.42168 20.759 6.74013C21.0775 7.0586 21.2367 7.45323 21.2367 7.924V14.5759C21.2367 15.0467 21.0775 15.4413 20.759 15.7598C20.4406 16.0782 20.0459 16.2375 19.5752 16.2375C18.836 16.2375 18.2367 16.8367 18.2367 17.5759V22.5C18.2367 22.8375 18.1147 23.1281 17.8708 23.3718C17.6269 23.6156 17.336 23.7374 16.9982 23.7374Z" fill="#FFCC48" fill-opacity="0.2"></path>
<defs>
<linearGradient id="paint0_linear_1258_505979" x1="0.953759" y1="0.563416" x2="11.1248" y2="23.6911" gradientUnits="userSpaceOnUse">
<stop stop-color="#FFC700"></stop>
<stop offset="1" stop-color="#FB7400"></stop>
</linearGradient>
</defs>
</svg>
